<?xml version="1.0" encoding="UTF-8"?>
<svg id="_Слой_1" data-name="Слой 1" xmlns="http://www.w3.org/2000/svg" viewBox="0 0 1920 784.56">
  <defs>
    <style>
      .cls-1 {
        fill: #483434;
      }
    </style>
  </defs>
  <g>
    <g>
      <g>
        <path class="cls-1" d="M15.77,30.96h3.51l.59-1.19.14-.55c0-.09.67-9.24,4.19-14.95,1.59-2.97,4.39-5.29,7.72-6.38h79.3L0,169.97v2.19h133.33v-27.32h-4.25v1.91c0,.09-.7,9.13-4.15,14.72-1.95,3.25-4.63,5.41-7.97,6.44H26.45L136.3,7.54l.23-.34v-3.56H15.77v27.32Z"/>
        <path class="cls-1" d="M308.65,166.63c-5.99-2.35-10.59-7.11-13.69-14.21l-6.82-15.46-18.62-44.24c1.17.07,2.37.19,3.62.32l2.08.21v-4.26l-1.19-.12c-1.96-.2-4.19-.41-6.33-.46L231.13,1.58h-2.68l-9.23,22.34,26.72,64.89c-23.17,2.55-42.3,11.69-56.95,27.29-.53.68-1.06,1.33-1.59,1.99-1.06,1.31-2.16,2.67-3.21,4.18-1.74,2.23-3.35,4.57-4.63,6.7-.99,1.48-1.86,2.97-2.78,4.54l-1.16,1.96c-2.81,5.11-5.29,10.73-6.91,14.51l-.1.44c-1.09,2.35-2.42,4.56-3.75,6.8-.62,1.25-1.26,2.33-2.18,3.71-4.65,6.54-15.96,6.98-16.06,6.98h-1.32v4.02h40.58v-3.89s-1.19-.12-1.19-.12c-.06,0-6.43-.68-9.08-3.3-.72-1.08-1.15-2.43-1.15-3.74-.22-2.22-.22-4.49-.23-6.37.23-2.52.7-5.04,1.07-6.98.89-2.44,1.8-4.95,2.88-7.12.57-1.02,1.08-1.87,1.59-2.72.52-.86,1.03-1.72,1.6-2.75l3.64-6.37c1.33-2.22,2.93-4.27,4.47-6.25l2.67-3.35c14.18-15.08,32.86-23.83,55.53-26l20.16,48.61c.7,1.97,3.05,8.53,4.72,11.97v.46l.37.73c1.96,3.93,3.23,8.9,3.02,9.7-.59.68-4.8,2.21-10.58,3.49l-1.04.23v3.99h52v-4.25h-1.78c-2.07,0-3.97-.63-5.91-1.28Z"/>
        <path class="cls-1" d="M472.53,167.04c-.43-.11-.81-.22-1.19-.33-.42-.12-.84-.24-1.12-.29l-1.6-.69-.56-.27c-.62-.2-1.2-.4-1.74-.76l-.64-.45h-.04c-.19-.15-.41-.29-.68-.37-6.87-4.61-12.06-13.57-16.26-21.77-.79-1.49-1.69-3.43-2.75-5.68-6.51-13.92-17.88-38.28-40.88-46,12.08-.72,20.68-2.37,26.11-4.99,7.2-3.36,13.33-8.9,17.28-15.64,4.07-7.43,6.1-15.72,5.87-23.94,0-10.43-2.96-19.03-8.77-25.54-5.98-6.93-14-12.03-22.62-14.36-7.31-1.83-14.84-2.99-22.31-3.45-3.51-.47-7-.47-10.6-.47-1.82-.12-2.43-.16-2.91.56l-.42.65.35.69c.33.66.47.93,5.77,1.21,11.96.89,21.4,4.24,27.28,9.68,7.31,7.09,11.02,18.07,11.02,32.63,0,9.48-2.16,17.7-6.43,24.44-3.85,6.35-9.6,11.01-16.19,13.14-4.56,1.52-9.65,2.45-14.71,2.67l-5.71.23-1.27.28v1.82l.39.39c.17.17.32.24.67.41,4.66,2.27,16.54,9.46,26.05,27.37,3.38,6.36,6.57,13.48,9.66,20.36,7.94,17.68,14.79,32.94,23.23,33.12,8.6.22,30.2.23,30.42.23h1.78v-4.25h-2.01c-1.46,0-2.96-.21-4.47-.65Z"/>
        <path class="cls-1" d="M373.7,166.15c-1.09-.36-2.51-3.65-2.75-6.28,0-.36-.12-.64-.23-.91v-2.13c-.21-3.88-.69-12.96-.69-28.03l.23-126.53h-35.32v4.59l1.2.11c2.8.25,4.98.74,6.61,1.46,2.87,1.44,4.74,4.57,5.68,9.54.27,1.6.52,7.56.23,26.87l-.02,83.95c0,15-.46,23.8-.69,28.1,0,.62,0,1.16-.16,1.64l-.07.2v1.01c-.23,2.57-1.59,5.99-2.81,6.36-3.55.67-7.23,1.35-10.8,1.58l-1.24.08v4.17h52.91v-4.17l-1.25-.07c-3.8-.22-7.47-.91-10.85-1.54Z"/>
        <path class="cls-1" d="M536.24,166.34c-1.01-.22-2.38-3.44-2.62-6.02,0-.44-.11-.77-.23-1.14v-2.13c-.17-3.04-.69-12.27-.69-27.8V46.32l-.02-1.25c-.29-19.28-.04-25.12.22-26.61.94-5.16,2.71-8.28,5.46-9.56,2.41-1.2,4.86-1.46,6.49-1.46h1.32V2.5h-48.57v4.93h1.32c2.53,0,4.75.49,6.55,1.49,2.89,1.26,4.67,4.29,5.63,9.53.27,1.5.52,7.34.22,26.63l-.02,84.18c0,15.46-.51,24.75-.69,27.87,0,.62,0,1.16-.16,1.64l-.07.2v1.24c-.23,2.55-1.58,5.89-2.88,6.15-3.21.8-6.72,1.31-10.73,1.56l-1.24.08v4.17h52.91v-4.17l-1.24-.08c-4.22-.26-7.8-.77-10.99-1.57Z"/>
      </g>
      <g>
        <path class="cls-1" d="M1685.23,17.19c-.73-.97-1.68-1.93-2.4-2.66-.43-.43-.78-.7-1.09-.94-.18-.14-.35-.26-.51-.43l-.69-.69s-.05-.05-.07-.07v-.78h-1c-.06-.05-.15-.13-.27-.23-1.29-.86-2.61-1.96-2.68-2.01-17.99-13.45-44.7-8.87-52.43-7.12l-.27.03c-9,1.89-17.42,5.02-25.05,9.28-12.57,6.99-22.59,17.94-29.8,32.58-6.96,14.62-10.64,30.93-10.64,47.18,0,25.23,7.74,45.76,23.03,61.05,5.14,4.89,10.45,8.95,15.79,12.07,6.22,3.59,12.32,6.1,18.59,7.67,4.53,1.26,8.83,2.12,12.76,2.55,6.6.79,11.85,1.15,17.09,1.15h.06c7.05-.44,14.3-1.76,21.59-3.95,5.18-1.73,9.77-4.1,13.64-7.06l.99-.76-2.43-3.64-1.13.96c-12.7,10.73-35.45,10.43-35.63,10.43-16.08-.88-29.9-8.03-41.11-21.24-11.77-13.76-17.73-34.07-17.73-60.37,0-27.61,5.45-49.1,16.21-63.89,3.8-5.37,8.26-9.83,13.54-13.57,5.95-3.57,11.98-6.13,17.77-7.59,10.27-1.32,24.98-1.65,36.58,4.14.61.41,1.14.76,1.53,1.34,1.99,2.39,3.13,6.15,3.58,11.81.53,7.46,4.4,8.96,7.27,9.44,1.79.29,3.57-.27,4.7-1.41,1.38-1.1,2.25-2.74,2.55-4.92v-2.06c0-1.12-.28-2.24-.82-3.33l-1.5-2.95Z"/>
        <path class="cls-1" d="M1860.06,24.08c-12.14-10.76-27.07-18.05-43.19-21.07-.58-.26-.97-.28-1.33-.28h-1.84l.58,1.74c.42,1.26,2.11,2.06,3.16,2.38.39.26.78.33,1.06.34,10.41,3.66,19.2,10.03,25.47,18.46,11.18,14.32,16.85,35.33,16.85,62.47s-5.74,49.14-17.08,62.93c-7.22,9.19-17.1,15.75-28.56,18.96l-.97.27v3.5l1.56-.28c17.95-3.27,33.25-10.76,45.47-22.29,16.79-16.32,25.3-37.63,25.3-63.32s-8.91-48.12-26.49-63.82Z"/>
        <path class="cls-1" d="M1747.15,25.63c6.26-8.42,15.05-14.82,25.21-18.43.27,0,.78,0,1.3-.35,1.05-.32,2.74-1.12,3.15-2.39l.58-1.74h-1.83c-.29,0-.89,0-1.44.31-16.27,3.07-31.24,10.35-43.31,21.05-17.42,15.57-26.26,37.04-26.26,63.82s8.51,47,25.31,63.33c11.98,11.52,27.28,19.02,45.47,22.28l1.56.28v-3.51l-.97-.27c-11.16-3.06-21.04-9.62-28.57-18.98-11.47-13.95-17.29-35.11-17.29-62.91s5.75-47.96,17.08-62.47l.02-.02Z"/>
      </g>
      <g>
        <path class="cls-1" d="M815.78,87.65c-10.6-5.89-21.41-11.14-32.07-15.58-16.84-7.81-26.88-13.73-32.58-19.21-6.11-5.45-9.61-13.25-9.61-21.36.22-7.31,2.87-14.05,7.61-19.44,2.41-2.41,5.21-4.16,8.05-4.98,1.87-.83,4.06-1.51,6.35-1.97,5.93-1.19,11.92-1.26,17.34-.22,7.38,1.26,14.66,4.34,21.62,9.14.78.56,1.51,1.12,2.23,1.68.76.58,1.52,1.17,2.24,1.68l3.26,2.83c.58,1,.92,1.93,1.09,2.98.47,3.27.4,6.26-.22,8.95-1.03,5.78.56,9.32,4.87,10.81,1.55.86,3.59.83,5.26-.18,1.69-1.36,2.7-2.65,3.14-3.98,1.77-4.55.12-9.62-5.05-15.53-1.37-1.6-2.79-3.26-4.46-4.69l-.84-.62c-.78-.78-1.53-1.28-2.11-1.65-4.03-3.58-8.64-6.86-13.74-9.78-4.32-2.28-8.76-4.06-12.87-5.14-8.74-2.12-17.83-1.88-26.23.69-5.08,1.33-10.08,3.78-14.9,7.34-1.15.92-2.33,1.86-3.48,3.01-8.06,7.37-12.55,18.07-12.31,29.31,0,7.85,1.96,15.43,5.65,21.89,3.73,6.76,9.03,12.38,15.8,16.72l.82.48c2.57,1.51,5.78,3.38,9.33,5.06l20.85,9.85c15.23,6.31,26.16,12.6,32.47,18.67,6.07,6.07,9.43,14.46,9.21,23.05,0,8.89-3.49,17.12-10.29,24.37l-2.11,1.88c-.5.5-1,.86-1.6,1.3l-.69.52c-.42.42-1.03.78-1.79,1.22l-.6.36c-.67.34-1.91.92-2.51,1.14-.35.17-.69.31-1.02.44-.5.2-1.02.4-1.5.7-.79.31-1.6.5-2.33.67l-.76.2c-.88.35-1.98.56-2.95.75l-.64.13c-1.23.41-2.47.62-3.88.63-1.51.22-2.84.22-4.38.22s-3.33,0-4.86-.22c-1.74-.22-3.54-.44-5.13-.89-2.08-.46-3.81-.9-5.55-1.55-8.47-3.04-16.18-8.36-22.24-15.32-2.82-3.69-5.06-7.87-6.65-12.41-.23-.7-1.35-4.53-1.53-5.29v-1.32h-9.49l-.25,30.52h4.26v-1.9c0-.1.86-9.75,3.71-15.93l3.51,5.43c7.08,9.21,16.45,16.15,27.07,20.08,5.12,2,10.97,3.06,16.93,3.06s11.52-1.03,16.53-3.01c8.16-1.92,15.36-5.72,21.4-11.29,9.5-9.03,14.12-20.33,14.12-34.55,0-8.5-2.03-16.7-5.89-23.73-3.64-6.36-9.01-11.89-15.59-16.04Z"/>
        <path class="cls-1" d="M995.21,2.72h-119.36v-.23h-22.07v27.32h4.25v-1.69c0-.09.71-9.35,4.13-14.91,1.92-2.99,4.62-5.22,7.81-6.47h54.41v15.18c.16,4.17.1,10.94.04,16.38-.02,2.25-.04,4.26-.04,5.73v85.22c0,15.15-.5,24.51-.69,28.1,0,.62,0,1.16-.16,1.64l-.07.2v1.01c-.23,2.56-1.59,5.99-2.8,6.36-3.65.68-7.33,1.14-10.89,1.59l-1.16.14v3.87h52.91v-3.88l-1.17-.14c-3.58-.42-7.39-.89-10.93-1.54-1.09-.36-2.51-3.65-2.75-6.28,0-.33-.1-.62-.23-.91v-2.13c-.21-3.9-.69-13.03-.69-28.03V45.4c0-1.02-.03-2.7-.07-4.76-.11-5.78-.27-14.53.07-19.46V6.74h55.32c3.2,1.25,5.89,3.49,7.8,6.45,3.44,5.59,4.14,14.61,4.14,14.61v2.21l4.25-.61V2.5h-20.74l-1.32.23Z"/>
        <path class="cls-1" d="M1068.65,25.63c6.26-8.42,15.05-14.82,25.21-18.43.27,0,.78,0,1.3-.35,1.05-.32,2.74-1.12,3.15-2.39l.58-1.74h-1.83c-.29,0-.89,0-1.44.31-16.27,3.07-31.24,10.35-43.31,21.05-17.42,15.57-26.26,37.04-26.26,63.82s8.51,47,25.31,63.33c11.98,11.52,27.28,19.02,45.47,22.28l1.56.28v-3.51l-.97-.27c-11.16-3.06-21.04-9.62-28.57-18.98-11.47-13.95-17.29-35.11-17.29-62.91s5.75-47.96,17.08-62.47l.02-.02Z"/>
        <path class="cls-1" d="M1181.57,24.08c-12.14-10.76-27.07-18.05-43.19-21.07-.58-.26-.97-.28-1.33-.28h-1.84l.58,1.74c.42,1.26,2.11,2.06,3.16,2.38.39.26.78.33,1.06.34,10.41,3.66,19.2,10.03,25.47,18.46,11.18,14.32,16.85,35.33,16.85,62.47s-5.74,49.14-17.08,62.93c-7.22,9.19-17.1,15.75-28.56,18.96l-.97.27v3.5l1.56-.28c17.95-3.27,33.25-10.76,45.47-22.29,16.79-16.32,25.3-37.63,25.3-63.32s-8.91-48.12-26.49-63.82Z"/>
        <path class="cls-1" d="M1349.8,7.66h.98c.39.49,1.07,1.98,1.07,3.93v128.35L1248.74,3.87h-25.49l15.29,20.05v140.88c-.18,2.51-1.16,4.2-1.33,4.4l-.73.37v2.6h8.13v-1.32l.16-1.17-.73-.37c-.2-.2-1.25-1.74-1.25-4.4V29.71l110.43,146.33h2.9V11.59c0-1.95.69-3.44,1.07-3.93h.98v-3.33h-8.36v3.33Z"/>
        <path class="cls-1" d="M1488.47,23.2c.03-.32-.03-7.84-11.92-12.21-9.43-3.57-24.55-4.26-24.7-4.26h-40.22v114.97c0,12.31,0,21.21.45,27.33v18.88h39.8c.13,0,15.25-.66,24.65-4.26,11.92-4.37,11.97-11.89,11.94-12.21v-1.35h3.81v22.08h-117.59v-4.18l1.24-.08c4.02-.24,7.52-.74,10.72-1.56,1.32-.26,2.67-3.6,2.89-6.14v-1.24l.08-.19c.16-.5.16-1.03.16-1.64.16-3.12.69-12.42.69-27.88V45.08c.32-19.3.05-25.13-.21-26.64-.95-5.19-2.75-8.31-5.69-9.77-1.77-.79-4.08-1.24-6.49-1.24h-1.32V2.5h115.52v22.06h-3.84l.03-1.35Z"/>
        <path class="cls-1" d="M1442.25,73.92h-2.65c0,7.1-5.77,12.87-12.87,12.87v1.33h0,0v1.32c7.1,0,12.87,5.77,12.87,12.87h1.32s0,0,0,0h1.32c0-7.1,5.77-12.87,12.87-12.87v-2.65c-7.1,0-12.87-5.77-12.87-12.87Z"/>
      </g>
      <path class="cls-1" d="M632.04,92.44l-.07-.07,8.02-5.78c14.16-9.7,20.66-18.53,19.87-27.04-.66-5.31-3.45-9.98-7.66-12.79-3.66-2.5-7.87-4.42-12.16-5.52-3.71-1.09-6.92-1.52-10.01-1.35-.99,0-2.22,0-3.21.2-6.5.97-12.32,3.78-17.28,8.36l-.35.29c-.21.18-.51.44-.79.84l-.86.85c-5.05,6.05-7.22,12.26-6.63,19.03.94,8.35,5.96,17.59,14.98,27.54-.26.2-.52.4-.78.61l-.74.58c-3.74,2.86-7.35,5.66-10.35,8.4-5.63,5.01-9.97,9.79-13.28,14.6-4.19,5.91-5.91,13.15-5.11,21.49.39,5.12,2.07,10.16,4.89,14.63,3.12,4.56,6.66,8.21,10.52,10.86,4.21,2.86,8.8,4.96,13.62,6.24,3.49.98,7.21,1.48,11.06,1.48,1.17,0,2.34-.05,3.42-.13h.57c4.24-.39,8.65-1.5,12.72-3.22,11.48-4.69,18.82-10.66,22.42-18.2.52-1.01.87-2.12,1.17-3.14l22.79,24.57h22.33l-79.08-83.29ZM615.03,55.71c.73-2.34,2.25-4.49,4.29-6.08,1.92-1.59,3.97-2.71,6.01-3.3,4.68-1.05,11.02-.9,14.77,2.68,1.46,1.31,2.75,3.15,3.72,5.28.83,1.94,1.39,4.14,1.8,6.97v2.36c0,2.44-.53,5-1.5,7.45l-1.68,2.98c-.55,1.12-1.29,2.2-2.5,3.64-1,1.15-1.95,2.24-3.15,3.29-.44.43-2.62,2.21-5.71,4.64l-.29.23c-.93.74-1.84,1.47-2.63,2.1-8.7-10.27-13.26-18.36-13.92-24.72-.19-2.89.06-5.35.79-7.54ZM661.09,146.23c-1.24,5.76-5.19,10.78-10.52,13.24-3.8,2.22-8.32,3.66-13.05,4.17-8.81.86-16.94-1.9-24.83-8.43-7.55-6.37-11.81-13.65-12.65-21.67-.65-4.91.73-10.26,4.24-16.41.75-1.48,1.52-2.6,2.42-3.52l.17-.22s.13-.14.32-.33c.41-.41.62-.67.74-.85,4.04-4.2,7.95-7.78,11.94-10.92l12.7,13.75c11.22,12.19,23.53,25.59,28.52,31.18Z"/>
    </g>
    <path class="cls-1" d="M1903.86,137.7h-3.32c0,8.9-7.24,16.14-16.14,16.14v1.66h0,0v1.66c8.9,0,16.14,7.24,16.14,16.14h1.66s0,0,0,0h1.66c0-8.9,7.24-16.14,16.14-16.14v-3.32c-8.9,0-16.14-7.24-16.14-16.14Z"/>
  </g>
  <g>
    <g>
      <path class="cls-1" d="M964.52,580.07l.26.32.39.36c.16.06.36.13.52.16.26.1.49.16.75.16.2,0,.39-.03.59-.1h.03c1.44,0,2.91-.19,4.35-.36.75-.1,1.51-.2,2.23-.26l171.14-15.16s.13,0,.23-.03h.1s.26-.07.39-.13c.75-.26,1.28-.82,1.41-1.54l11.43-53.77c.1-.46.26-1.01.46-1.67.49-1.73,1.11-3.85.95-5.45.06-.69-.16-1.34-.56-1.77-.46-.62-1.05-1.14-1.64-1.67-.26-.26-.56-.49-.79-.72l-54.64-54.53-.26-.23-.33.23.26-.33-.26-.26-54.61-54.49c-.23-.23-.49-.52-.72-.78-.52-.59-1.08-1.18-1.64-1.6-.46-.42-1.11-.65-1.73-.59-1.67-.16-3.83.46-5.53.95-.65.19-1.21.36-1.67.46l-53.89,11.4c-.69.13-1.24.65-1.5,1.4-.07.13-.1.29-.1.42l.39.06h-.42s-.03.2-.03.26l-15.19,170.77c-.07.72-.16,1.47-.26,2.25-.16,1.44-.36,2.94-.36,4.38-.16.42-.13.92,0,1.27.03.23.13.46.23.62l.03-.06ZM973.78,575.82c6.25-4.6,12.9-8.75,19.71-12.38,22.69-12.02,48.49-18.33,74.13-18.33,5.34,0,10.71.26,16.01.85,18.24,1.93,36.64,7.25,53.27,15.45l-163.11,14.44v-.03ZM998.57,555.93c27.21-18.82,57.33-32.7,89.61-41.39-2.39,8.98-5.27,17.9-8.55,26.63-17.94-1.4-35.75.16-52.88,4.61-9.62,2.51-19.09,5.91-28.19,10.16ZM1143.22,559.59c-7.99-4.22-16.31-7.78-24.75-10.62-11-3.66-22.53-6.18-34.18-7.42,3.44-9.28,6.45-18.82,8.9-28.36,20.14-5.03,40.86-7.87,61.65-8.46l-11.65,54.82.03.03ZM1102.32,450.37l50.09,49.98c-12.8.46-25.41,1.7-37.49,3.69-6.71,1.11-13.62,2.48-20.5,4.15,4.52-18.88,7.17-38.32,7.89-57.79v-.03ZM1089.49,509.41c-22.92,5.91-45.05,14.6-65.78,25.84-13.42,7.25-26.55,15.78-39.06,25.35,9.59-12.48,18.14-25.58,25.41-38.97,11.26-20.72,19.94-42.8,25.9-65.63,20.27-5,41.09-7.84,61.98-8.4-.56,20.81-3.41,41.62-8.41,61.85l-.03-.03ZM1004.14,465.79c8.71-3.23,17.68-6.11,26.68-8.53-8.68,32.21-22.62,62.27-41.48,89.42,4.26-9.05,7.7-18.49,10.18-28.13,4.45-17.12,5.99-34.86,4.62-52.76ZM1045.03,393.2l50.09,49.98c-19.51.72-38.99,3.37-57.92,7.87,1.67-6.86,3.04-13.75,4.16-20.45,2-12.05,3.24-24.63,3.7-37.41h-.03ZM1040.64,390.75c-.59,20.75-3.44,41.46-8.48,61.52-9.56,2.45-19.12,5.46-28.42,8.89-1.24-11.63-3.73-23.13-7.43-34.11-2.82-8.43-6.38-16.73-10.64-24.7l54.97-11.63v.03ZM970.28,561.25l13.55-152.57c8.22,16.6,13.55,34.96,15.49,53.15,3.24,30.64-2.98,62.59-17.55,89.94-3.63,6.83-7.79,13.43-12.41,19.67l.92-10.19Z"/>
      <path class="cls-1" d="M955.51,590.36l.07-.07-.26-.29-.49-.39c-.16-.07-.33-.13-.49-.13-.46-.2-.92-.23-1.37-.07-1.51,0-2.95.2-4.39.36-.75.1-1.51.19-2.23.26l-171.14,15.16s-.16,0-.23.03h-.1s-.26.06-.39.13c-.75.29-1.28.82-1.41,1.53l-11.43,53.77c-.1.46-.26,1.01-.46,1.67-.49,1.73-1.12,3.85-.95,5.46-.06.69.16,1.34.56,1.77.46.62,1.05,1.14,1.64,1.67.26.26.56.49.79.75l54.58,54.46.36.32.33-.23-.26.29.33.33,54.55,54.43c.23.23.49.52.75.78.52.59,1.08,1.18,1.64,1.6.46.42,1.11.62,1.73.59h.56c1.57,0,3.44-.56,4.98-.98.62-.2,1.21-.36,1.67-.46l53.89-11.4c.72-.13,1.25-.65,1.51-1.37.07-.13.1-.29.1-.42l-.39-.06h.42s.03-.2.03-.26l15.19-170.77c.07-.72.16-1.47.26-2.22.2-1.44.36-2.94.36-4.38.16-.42.13-.92,0-1.28-.03-.19-.1-.39-.2-.59h-.1ZM946.22,594.54c-6.26,4.61-12.9,8.76-19.71,12.38-27.4,14.5-59.43,20.75-90.13,17.51-18.5-1.96-36.41-7.15-53.27-15.45l163.11-14.44ZM921.43,614.44c-27.21,18.82-57.33,32.7-89.61,41.39,2.39-8.99,5.27-17.94,8.55-26.63,17.94,1.4,35.75-.16,52.91-4.61,9.62-2.48,19.09-5.91,28.16-10.16ZM776.82,610.78c7.99,4.21,16.31,7.77,24.75,10.62,11,3.66,22.53,6.18,34.18,7.42-3.44,9.28-6.45,18.82-8.9,28.36-20.14,5.03-40.86,7.87-61.68,8.46l11.66-54.82v-.03ZM817.68,720l-50.09-49.99c12.8-.46,25.41-1.7,37.49-3.69,6.71-1.11,13.59-2.48,20.5-4.15-4.52,18.88-7.17,38.32-7.89,57.79v.03ZM830.51,660.96c22.92-5.91,45.05-14.6,65.78-25.84,13.42-7.25,26.55-15.78,39.06-25.35-9.59,12.48-18.14,25.58-25.41,38.97-11.26,20.71-19.97,42.8-25.9,65.63-20.27,5-41.09,7.84-61.98,8.4.56-20.81,3.41-41.62,8.41-61.84l.03.03ZM915.87,704.58c-8.71,3.23-17.68,6.11-26.68,8.53,8.68-32.21,22.62-62.27,41.48-89.42-4.26,9.08-7.69,18.49-10.18,28.1-4.45,17.12-5.99,34.86-4.62,52.8ZM875.01,777.17l-50.09-49.99c19.54-.72,39.03-3.36,57.92-7.87-1.64,6.86-3.05,13.72-4.16,20.45-2,12.06-3.24,24.63-3.7,37.41h.03ZM879.39,779.62c.59-20.75,3.44-41.46,8.48-61.55,9.56-2.45,19.12-5.46,28.42-8.89,1.24,11.66,3.73,23.13,7.43,34.11,2.82,8.43,6.38,16.73,10.64,24.7l-54.94,11.63h-.03ZM936.17,761.72c-8.32-16.82-13.52-34.69-15.49-53.15-3.24-30.65,2.98-62.59,17.55-89.94,3.64-6.83,7.79-13.43,12.41-19.67l-14.47,162.76Z"/>
      <path class="cls-1" d="M1158.37,660.67l-11.43-53.77c-.16-.72-.66-1.24-1.41-1.5-.13-.06-.29-.1-.42-.1l-.07.39v-.42s-.2-.03-.26-.03l-171.14-15.16c-.72-.07-1.47-.16-2.23-.26-1.44-.19-2.91-.36-4.39-.36-.42-.16-.88-.13-1.28,0-.19.03-.39.1-.59.2h-.03l-.29.19-.39.46h.03c-.1.2-.16.39-.19.56-.2.46-.2.92-.07,1.37,0,1.44.2,2.94.36,4.38.1.75.19,1.5.26,2.25l15.19,170.76s0,.13.03.23v.1s.06.26.13.39c.26.75.82,1.28,1.54,1.41l53.89,11.4c.46.1,1.02.26,1.67.46,1.54.46,3.41.98,4.94.98h.52c.72.06,1.34-.16,1.77-.56.62-.46,1.15-1.05,1.67-1.63.26-.26.49-.56.72-.78l54.61-54.49,55.23-55.15c.23-.23.52-.49.79-.75.59-.52,1.18-1.08,1.6-1.63.43-.46.65-1.11.59-1.73.16-1.67-.46-3.82-.95-5.52-.2-.65-.36-1.21-.46-1.67h.03ZM1136.93,608.98c-16.63,8.2-35.03,13.53-53.27,15.45-30.71,3.24-62.73-2.97-90.13-17.51-6.84-3.63-13.45-7.78-19.71-12.38l163.11,14.44ZM1088.18,655.83c-32.28-8.66-62.4-22.57-89.61-41.39,9.1,4.25,18.53,7.68,28.16,10.16,17.16,4.44,34.94,5.98,52.88,4.61,3.27,8.69,6.12,17.64,8.55,26.63h.03ZM969.4,598.95c4.62,6.24,8.77,12.87,12.41,19.67,14.54,27.35,20.79,59.29,17.55,89.94-1.96,18.46-7.17,36.33-15.49,53.15l-14.47-162.76ZM999.52,651.78c-2.52-9.61-5.93-19.05-10.18-28.13,18.86,27.15,32.77,57.2,41.48,89.42-9-2.38-17.97-5.26-26.68-8.53,1.41-17.9-.16-35.68-4.62-52.8v.03ZM985.67,767.99c4.22-7.97,7.82-16.27,10.64-24.7,3.67-10.98,6.19-22.48,7.43-34.11,9.3,3.43,18.86,6.44,28.42,8.89,5.04,20.09,7.89,40.77,8.48,61.55l-54.97-11.63ZM1045.03,777.17c-.46-12.77-1.7-25.35-3.7-37.41-1.11-6.7-2.49-13.56-4.16-20.45,18.92,4.51,38.41,7.15,57.92,7.87l-50.09,49.99h.03ZM1035.96,714.41c-5.93-22.87-14.63-44.95-25.9-65.63-7.27-13.39-15.81-26.5-25.41-38.97,12.51,9.57,25.64,18.1,39.06,25.35,20.76,11.24,42.89,19.93,65.78,25.84,5.01,20.22,7.86,41,8.41,61.85-20.86-.56-41.71-3.4-61.98-8.4l.03-.03ZM1102.32,720c-.72-19.5-3.37-38.94-7.89-57.79,6.87,1.67,13.78,3.04,20.5,4.15,12.08,1.99,24.69,3.23,37.49,3.69l-50.09,49.98v-.03ZM1093.19,657.17c-2.45-9.54-5.47-19.08-8.9-28.36,11.65-1.24,23.18-3.72,34.18-7.42,8.45-2.81,16.76-6.37,24.75-10.62l11.66,54.82c-20.79-.59-41.55-3.43-61.65-8.46l-.03.03Z"/>
      <path class="cls-1" d="M761.62,509.7l11.43,53.77c.13.69.65,1.24,1.38,1.5.13.07.29.1.42.1l.07-.39v.42s.19.03.26.03l171.14,15.16c.72.07,1.47.16,2.23.26,1.44.16,2.91.36,4.35.36h.03c.2.06.42.1.62.1.23,0,.46-.03.65-.13.23-.03.46-.13.65-.23l.29-.23.36-.39h-.03c.1-.2.16-.39.16-.52.2-.46.23-.92.07-1.37,0-1.44-.2-2.94-.36-4.38-.1-.75-.2-1.5-.26-2.22l-15.19-170.76s0-.16-.03-.23v-.1s-.07-.26-.13-.39c-.26-.75-.82-1.27-1.54-1.4l-53.89-11.4c-.46-.1-1.01-.26-1.67-.46-1.73-.49-3.86-1.11-5.47-.95-.69-.06-1.34.16-1.77.56-.62.46-1.15,1.04-1.67,1.63-.26.26-.49.56-.75.79l-54.58,54.46-.72.69-54.58,54.49c-.23.23-.52.49-.79.72-.59.52-1.18,1.08-1.6,1.63-.43.46-.65,1.11-.59,1.73-.16,1.67.46,3.82.95,5.52.2.66.36,1.21.46,1.67l.1-.03ZM936,574.94l-152.9-13.52c16.86-8.3,34.77-13.49,53.27-15.45,30.71-3.23,62.73,2.97,90.13,17.51,6.84,3.62,13.45,7.77,19.71,12.38l-10.22-.92ZM831.82,514.54c32.28,8.66,62.4,22.57,89.61,41.39-9.07-4.25-18.53-7.68-28.19-10.16-13.06-3.4-26.52-5.1-40.14-5.1-4.26,0-8.51.16-12.77.49-3.24-8.69-6.12-17.64-8.55-26.63h.03ZM950.64,571.41c-4.62-6.24-8.77-12.87-12.41-19.67-14.54-27.35-20.79-59.29-17.55-89.94,1.93-18.2,7.27-36.56,15.49-53.15l14.47,162.76ZM920.48,518.59c2.49,9.61,5.93,19.04,10.18,28.09-18.83-27.15-32.77-57.21-41.48-89.42,9,2.42,17.98,5.26,26.68,8.53-1.41,17.9.16,35.68,4.62,52.76v.03ZM934.33,402.38c-4.22,7.97-7.79,16.27-10.64,24.7-3.67,10.98-6.19,22.44-7.43,34.11-9.3-3.43-18.86-6.44-28.42-8.88-5.04-20.09-7.89-40.77-8.48-61.52l54.94,11.63.03-.03ZM875.01,393.2c.46,12.77,1.7,25.35,3.7,37.41,1.11,6.73,2.52,13.59,4.16,20.45-18.92-4.51-38.41-7.15-57.92-7.87l50.09-49.98h-.03ZM884.07,455.96c5.93,22.87,14.63,44.95,25.9,65.63,7.27,13.39,15.81,26.49,25.41,38.97-12.51-9.57-25.64-18.1-39.06-25.35-20.76-11.24-42.89-19.89-65.78-25.84-5.01-20.22-7.86-41-8.41-61.84,20.86.56,41.71,3.4,61.98,8.4l-.03.03ZM817.68,450.37c.72,19.51,3.37,38.94,7.89,57.79-6.91-1.67-13.79-3.04-20.5-4.15-12.08-1.99-24.69-3.24-37.49-3.69l50.09-49.99v.03ZM826.84,513.2c2.45,9.54,5.47,19.08,8.9,28.36-11.65,1.24-23.18,3.72-34.18,7.42-8.45,2.81-16.76,6.37-24.75,10.62l-10.67-50.28-.98-4.54c20.79.59,41.55,3.43,61.68,8.46v-.03Z"/>
    </g>
    <path class="cls-1" d="M391.2,266.15h6.61v35.45h-5.04l-23.31-24.18v24.18h-6.61v-35.45h5.04l23.31,24.31v-24.31Z"/>
    <path class="cls-1" d="M440.96,301.6l-3.54-8.82h-15.98l-3.57,8.82h-6.88l14.73-35.45h7.79l14.63,35.45h-7.24.03ZM423.68,287.32h11.52l-5.73-14.25-5.79,14.25Z"/>
    <path class="cls-1" d="M491.55,266.15v5.46h-13.39v29.99h-6.61v-29.99h-13.39v-5.46h33.43-.03Z"/>
    <path class="cls-1" d="M530.8,266.15h6.65v20.35c0,4.51-1.47,8.2-4.35,11.14-2.88,3.01-6.94,4.44-11.98,4.44s-9.07-1.47-11.98-4.44c-2.88-2.94-4.35-6.63-4.35-11.14v-20.35h6.65v19.86c0,6.27,3.27,10.65,9.72,10.65s9.72-4.34,9.72-10.65v-19.86h-.07Z"/>
    <path class="cls-1" d="M585.35,301.6h-7.56l-6.09-9.93c-.92-1.47-1.87-2.48-2.78-2.97-.98-.52-2.46-.75-4.49-.75h-3.67v13.69h-6.61v-35.45h14.86c8.48,0,13.65,3.43,13.65,10.68,0,4.7-2.55,7.81-7.73,9.31,1.24.85,2.42,2.19,3.44,4.02l6.97,11.43v-.03ZM560.73,282.45h6.88c6.02,0,8.35-1.63,8.35-5.42s-2.32-5.42-8.35-5.42h-6.88v10.85Z"/>
    <path class="cls-1" d="M625.2,301.6l-3.54-8.82h-15.98l-3.57,8.82h-6.88l14.73-35.45h7.79l14.63,35.45h-7.24.03ZM607.91,287.32h11.52l-5.73-14.25-5.79,14.25Z"/>
    <path class="cls-1" d="M652.2,296.14h20.95v5.46h-27.6v-35.45h6.65v29.99Z"/>
    <path class="cls-1" d="M684.1,308l1.77-13.07h6.48l-4.03,13.07h-4.22Z"/>
    <path class="cls-1" d="M713.89,296.14h20.95v5.46h-27.6v-35.45h6.65v29.99Z"/>
    <path class="cls-1" d="M774.98,301.6l-3.54-8.82h-15.98l-3.57,8.82h-6.87l14.73-35.45h7.79l14.63,35.45h-7.24.03ZM757.69,287.32h11.53l-5.73-14.25-5.79,14.25Z"/>
    <path class="cls-1" d="M827.3,291.79c0,3.11-1.28,5.46-3.8,7.19-2.55,1.77-5.69,2.65-9.43,2.65h-18.69v-35.45h17.25c3.76,0,6.81.82,9.17,2.38,2.36,1.57,3.54,3.99,3.54,7.19s-2.03,5.72-5.3,7.35c4.85,1.47,7.27,4.35,7.27,8.72v-.03ZM802.03,271.64v9.05h9.82c4.48,0,6.71-1.4,6.71-4.31,0-3.2-2.46-4.77-7.3-4.77h-9.23v.03ZM812.54,296.14c5.17,0,7.5-1.37,7.5-4.77,0-3.59-2.46-5.23-7.79-5.23h-10.22v9.96h10.51v.03Z"/>
    <path class="cls-1" d="M839.51,308l1.77-13.07h6.48l-4.03,13.07h-4.22Z"/>
    <path class="cls-1" d="M881.95,283.37h14.37v18.23h-4.94l-.56-4.12c-2.55,3.1-6.38,4.6-11.49,4.6s-9.53-1.73-12.83-5.16c-3.31-3.43-4.91-7.81-4.91-13.07s1.8-9.41,5.4-12.97c3.6-3.5,8.05-5.26,13.45-5.26,3.86,0,7.37,1.01,10.38,3.04,3.01,2.03,4.91,5,5.79,8.92h-6.55c-1.31-4.31-5.34-6.47-9.63-6.47-3.41,0-6.19,1.21-8.41,3.66-2.19,2.42-3.34,5.46-3.34,9.12s1.05,6.79,3.04,9.18c2.03,2.39,4.88,3.59,8.55,3.59,5.7,0,9.92-2.88,10.15-8.72h-8.55v-4.57h.07Z"/>
    <path class="cls-1" d="M919.93,296.14h21.05v5.46h-27.7v-35.45h27.21v5.46h-20.56v8.85h19.09v5.46h-19.09v10.22Z"/>
    <path class="cls-1" d="M990.81,266.15h5.63v35.45h-6.65v-22.25l-12.77,19.08h-1.96l-12.77-19.08v22.25h-6.61v-35.45h5.63l14.73,22.7,14.73-22.7h.03Z"/>
    <path class="cls-1" d="M1041.26,291.14c0,3.4-1.34,6.01-4.03,8-2.72,1.96-6.35,2.97-10.87,2.97-8.58,0-14.24-3.85-14.96-10.75h6.42c.49,3.5,3.27,5.26,8.45,5.26,4.52,0,7.76-1.57,7.76-4.41,0-3.76-5.4-4.41-10.8-5.88-5.5-1.41-10.84-3.59-10.84-10.13,0-3.4,1.38-5.98,4.09-7.84,2.68-1.83,6.03-2.74,10.05-2.74,7.86,0,13.26,3.79,14.24,10.23h-6.42c-.82-3.2-3.67-4.97-7.76-4.97s-7.24,1.76-7.24,4.57c0,7.48,21.9,2.64,21.9,15.65v.03Z"/>
    <path class="cls-1" d="M1086.61,266.15v5.46h-13.39v29.99h-6.61v-29.99h-13.39v-5.46h33.43-.03Z"/>
    <path class="cls-1" d="M1117.12,265.66c5.4,0,9.92,1.77,13.49,5.26,3.57,3.56,5.34,7.84,5.34,12.97s-1.77,9.41-5.34,12.9c-3.57,3.53-8.08,5.33-13.49,5.33s-9.86-1.76-13.46-5.33c-3.57-3.49-5.4-7.81-5.4-12.9s1.83-9.41,5.4-12.97c3.57-3.49,8.06-5.26,13.46-5.26ZM1117.12,296.66c3.41,0,6.19-1.21,8.41-3.66,2.23-2.45,3.34-5.46,3.34-9.11s-1.11-6.7-3.34-9.12c-2.23-2.42-5.01-3.66-8.41-3.66s-6.19,1.21-8.38,3.66c-2.19,2.45-3.34,5.46-3.34,9.12s1.15,6.7,3.34,9.11c2.19,2.42,5.01,3.66,8.38,3.66Z"/>
    <path class="cls-1" d="M1179.26,266.15h6.65v35.45h-5.04l-23.31-24.18v24.18h-6.64v-35.45h5.04l23.31,24.31v-24.31Z"/>
    <path class="cls-1" d="M1209.19,296.14h21.05v5.46h-27.7v-35.45h27.21v5.46h-20.56v8.85h19.09v5.46h-19.09v10.22Z"/>
    <path class="cls-1" d="M1273.79,291.14c0,3.4-1.34,6.01-4.03,8-2.72,1.96-6.32,2.97-10.84,2.97-8.58,0-14.24-3.85-15-10.75h6.42c.49,3.5,3.27,5.26,8.45,5.26,4.52,0,7.76-1.57,7.76-4.41,0-3.76-5.4-4.41-10.8-5.88-5.5-1.41-10.87-3.59-10.87-10.13,0-3.4,1.38-5.98,4.09-7.84,2.72-1.83,6.02-2.74,10.08-2.74,7.86,0,13.26,3.79,14.24,10.23h-6.42c-.82-3.2-3.67-4.97-7.76-4.97s-7.24,1.76-7.24,4.57c0,7.48,21.9,2.64,21.9,15.65v.03Z"/>
    <path class="cls-1" d="M1343.06,301.6h-7.66l-2.95-2.84c-3.44,2.22-7.33,3.33-11.59,3.33-3.93,0-7.1-.85-9.56-2.64-2.49-1.73-3.73-4.12-3.73-7.09,0-4.44,2.65-7.48,7.7-10.13-3.01-2.88-4.52-5.62-4.52-8.1,0-2.78,1.08-4.9,3.24-6.37,2.16-1.41,4.78-2.13,7.76-2.13s5.6.72,7.76,2.13c2.13,1.47,3.21,3.53,3.21,6.27,0,3.69-2.59,6.89-7.76,9.47l7.56,7.61c1.64-2.19,2.55-4.77,2.81-7.74h5.99c-.39,4.61-1.96,8.5-4.78,11.76l6.55,6.47h-.03ZM1328.37,294.83l-9.04-8.66c-3.47,1.86-5.04,3.66-5.04,6.24s2.85,4.25,6.97,4.25c2.59,0,4.94-.62,7.1-1.83ZM1321.75,270.56c-1.47,0-2.65.29-3.54.92-.95.62-1.37,1.47-1.37,2.58,0,1.47,1.31,3.33,3.96,5.69,4.09-1.83,5.8-3.5,5.8-5.78,0-1.08-.43-1.93-1.31-2.55-.89-.56-2.06-.85-3.54-.85Z"/>
    <path class="cls-1" d="M1411.69,266.15h5.63v35.45h-6.61v-22.25l-12.77,19.08h-1.96l-12.77-19.08v22.25h-6.65v-35.45h5.63l14.73,22.7,14.73-22.7h.03Z"/>
    <path class="cls-1" d="M1450.91,265.66c5.4,0,9.92,1.77,13.49,5.26,3.57,3.56,5.34,7.84,5.34,12.97s-1.77,9.41-5.34,12.9c-3.57,3.53-8.09,5.33-13.49,5.33s-9.86-1.76-13.46-5.33c-3.57-3.49-5.4-7.81-5.4-12.9s1.83-9.41,5.4-12.97c3.57-3.49,8.05-5.26,13.46-5.26ZM1450.91,296.66c3.41,0,6.19-1.21,8.41-3.66,2.23-2.45,3.34-5.46,3.34-9.11s-1.11-6.7-3.34-9.12c-2.23-2.42-5.01-3.66-8.41-3.66s-6.19,1.21-8.38,3.66c-2.2,2.45-3.34,5.46-3.34,9.12s1.15,6.7,3.34,9.11c2.19,2.42,5.01,3.66,8.38,3.66Z"/>
    <path class="cls-1" d="M1516.13,301.6h-7.56l-6.09-9.93c-.92-1.47-1.87-2.48-2.78-2.97-.98-.52-2.45-.75-4.48-.75h-3.67v13.69h-6.61v-35.45h14.86c8.48,0,13.65,3.43,13.65,10.68,0,4.7-2.55,7.81-7.73,9.31,1.24.85,2.42,2.19,3.44,4.02l6.97,11.43v-.03ZM1491.54,282.45h6.87c6.03,0,8.35-1.63,8.35-5.42s-2.32-5.42-8.35-5.42h-6.87v10.85Z"/>
    <path class="cls-1" d="M1536.14,296.14h21.05v5.46h-27.7v-35.45h27.21v5.46h-20.59v8.85h19.09v5.46h-19.09v10.19l.03.03Z"/>
    <path class="cls-1" d="M330.86,277.65c-3.57-3.46-5.11-7.22-5.76-9.18-.65,1.93-2.19,5.72-5.76,9.18-3.34,3.24-6.84,4.67-8.77,5.33,1.93.62,5.43,2.09,8.77,5.33,3.57,3.46,5.11,7.22,5.76,9.18.65-1.93,2.19-5.72,5.76-9.18,3.34-3.23,6.84-4.67,8.77-5.33-1.93-.62-5.43-2.09-8.77-5.33Z"/>
    <path class="cls-1" d="M1600.67,277.65c-3.57-3.46-5.11-7.22-5.76-9.18-.65,1.93-2.19,5.72-5.76,9.18-3.34,3.24-6.84,4.67-8.78,5.33,1.93.62,5.44,2.09,8.78,5.33,3.57,3.46,5.11,7.22,5.76,9.18.65-1.93,2.2-5.72,5.76-9.18,3.34-3.23,6.84-4.67,8.78-5.33-1.93-.62-5.43-2.09-8.78-5.33Z"/>
  </g>
</svg>